<mxfile host="Electron" agent="Mozilla/5.0 (Windows NT 10.0; Win64; x64) AppleWebKit/537.36 (KHTML, like Gecko) draw.io/27.0.9 Chrome/134.0.6998.205 Electron/35.4.0 Safari/537.36" version="27.0.9">
  <diagram name="Page-1" id="kR0S55BvYcO8RLCb589s">
    <mxGraphModel dx="4270" dy="2200" grid="1" gridSize="10" guides="1" tooltips="1" connect="1" arrows="1" fold="1" page="1" pageScale="1" pageWidth="1654" pageHeight="1169" math="0" shadow="0">
      <root>
        <mxCell id="0" />
        <mxCell id="1" parent="0" />
        <mxCell id="_BD6W95FqAiIMrkTcO8M-179" value="" style="group" parent="1" vertex="1" connectable="0">
          <mxGeometry x="660" y="890" width="510" height="240" as="geometry" />
        </mxCell>
        <mxCell id="_BD6W95FqAiIMrkTcO8M-154" value="BOOKING SEATS" style="whiteSpace=wrap;html=1;align=center;" parent="_BD6W95FqAiIMrkTcO8M-179" vertex="1">
          <mxGeometry x="210" y="95" width="100" height="40" as="geometry" />
        </mxCell>
        <mxCell id="_BD6W95FqAiIMrkTcO8M-155" value="id" style="ellipse;whiteSpace=wrap;html=1;align=center;fontStyle=4;" parent="_BD6W95FqAiIMrkTcO8M-179" vertex="1">
          <mxGeometry x="210" width="100" height="40" as="geometry" />
        </mxCell>
        <mxCell id="_BD6W95FqAiIMrkTcO8M-158" value="booking_seat" style="ellipse;whiteSpace=wrap;html=1;align=center;" parent="_BD6W95FqAiIMrkTcO8M-179" vertex="1">
          <mxGeometry x="220" y="200" width="100" height="40" as="geometry" />
        </mxCell>
        <mxCell id="_BD6W95FqAiIMrkTcO8M-159" value="created_at" style="ellipse;whiteSpace=wrap;html=1;align=center;" parent="_BD6W95FqAiIMrkTcO8M-179" vertex="1">
          <mxGeometry x="410" y="160" width="100" height="40" as="geometry" />
        </mxCell>
        <mxCell id="_BD6W95FqAiIMrkTcO8M-160" value="updated_at" style="ellipse;whiteSpace=wrap;html=1;align=center;" parent="_BD6W95FqAiIMrkTcO8M-179" vertex="1">
          <mxGeometry x="410" y="40" width="100" height="40" as="geometry" />
        </mxCell>
        <mxCell id="_BD6W95FqAiIMrkTcO8M-162" style="edgeStyle=orthogonalEdgeStyle;rounded=0;orthogonalLoop=1;jettySize=auto;html=1;exitX=0.5;exitY=1;exitDx=0;exitDy=0;" parent="_BD6W95FqAiIMrkTcO8M-179" edge="1">
          <mxGeometry relative="1" as="geometry">
            <mxPoint x="410" y="87" as="sourcePoint" />
            <mxPoint x="410" y="87" as="targetPoint" />
          </mxGeometry>
        </mxCell>
        <mxCell id="_BD6W95FqAiIMrkTcO8M-164" value="" style="endArrow=none;html=1;rounded=0;entryX=0.5;entryY=1;entryDx=0;entryDy=0;exitX=0.5;exitY=0;exitDx=0;exitDy=0;" parent="_BD6W95FqAiIMrkTcO8M-179" source="_BD6W95FqAiIMrkTcO8M-158" edge="1">
          <mxGeometry relative="1" as="geometry">
            <mxPoint x="360" y="190" as="sourcePoint" />
            <mxPoint x="270" y="135" as="targetPoint" />
          </mxGeometry>
        </mxCell>
        <mxCell id="_BD6W95FqAiIMrkTcO8M-166" value="" style="endArrow=none;html=1;rounded=0;entryX=0;entryY=1;entryDx=0;entryDy=0;exitX=1;exitY=0.5;exitDx=0;exitDy=0;" parent="_BD6W95FqAiIMrkTcO8M-179" source="_BD6W95FqAiIMrkTcO8M-170" target="_BD6W95FqAiIMrkTcO8M-154" edge="1">
          <mxGeometry relative="1" as="geometry">
            <mxPoint x="100" y="160" as="sourcePoint" />
            <mxPoint x="200" y="143" as="targetPoint" />
          </mxGeometry>
        </mxCell>
        <mxCell id="_BD6W95FqAiIMrkTcO8M-172" value="&lt;span style=&quot;color: rgba(0, 0, 0, 0); font-family: monospace; font-size: 0px; text-align: start; background-color: rgb(236, 236, 236);&quot;&gt;%3CmxGraphModel%3E%3Croot%3E%3CmxCell%20id%3D%220%22%2F%3E%3CmxCell%20id%3D%221%22%20parent%3D%220%22%2F%3E%3CmxCell%20id%3D%222%22%20value%3D%22%22%20style%3D%22endArrow%3Dnone%3Bhtml%3D1%3Brounded%3D0%3BentryX%3D0%3BentryY%3D1%3BentryDx%3D0%3BentryDy%3D0%3BexitX%3D0.5%3BexitY%3D0%3BexitDx%3D0%3BexitDy%3D0%3B%22%20edge%3D%221%22%20parent%3D%221%22%3E%3CmxGeometry%20relative%3D%221%22%20as%3D%22geometry%22%3E%3CmxPoint%20x%3D%22560%22%20y%3D%22660%22%20as%3D%22sourcePoint%22%2F%3E%3CmxPoint%20x%3D%22670%22%20y%3D%22635%22%20as%3D%22targetPoint%22%2F%3E%3C%2FmxGeometry%3E%3C%2FmxCell%3E%3C%2Froot%3E%3C%2FmxGraphModel%3E&lt;/span&gt;" style="edgeLabel;html=1;align=center;verticalAlign=middle;resizable=0;points=[];" parent="_BD6W95FqAiIMrkTcO8M-166" vertex="1" connectable="0">
          <mxGeometry x="0.3608" y="-4" relative="1" as="geometry">
            <mxPoint as="offset" />
          </mxGeometry>
        </mxCell>
        <mxCell id="_BD6W95FqAiIMrkTcO8M-169" value="" style="endArrow=none;html=1;rounded=0;" parent="_BD6W95FqAiIMrkTcO8M-179" target="_BD6W95FqAiIMrkTcO8M-155" edge="1">
          <mxGeometry relative="1" as="geometry">
            <mxPoint x="260" y="95" as="sourcePoint" />
            <mxPoint x="357" y="78" as="targetPoint" />
          </mxGeometry>
        </mxCell>
        <mxCell id="_BD6W95FqAiIMrkTcO8M-170" value="&lt;span style=&quot;border-bottom: 1px dotted&quot;&gt;seat_id&lt;/span&gt;" style="ellipse;whiteSpace=wrap;html=1;align=center;" parent="_BD6W95FqAiIMrkTcO8M-179" vertex="1">
          <mxGeometry y="160" width="100" height="40" as="geometry" />
        </mxCell>
        <mxCell id="_BD6W95FqAiIMrkTcO8M-171" value="&lt;span style=&quot;border-bottom: 1px dotted&quot;&gt;booking_id&lt;/span&gt;" style="ellipse;whiteSpace=wrap;html=1;align=center;" parent="_BD6W95FqAiIMrkTcO8M-179" vertex="1">
          <mxGeometry y="40" width="100" height="40" as="geometry" />
        </mxCell>
        <mxCell id="_BD6W95FqAiIMrkTcO8M-173" value="" style="endArrow=none;html=1;rounded=0;entryX=0;entryY=0.5;entryDx=0;entryDy=0;exitX=1;exitY=0;exitDx=0;exitDy=0;" parent="_BD6W95FqAiIMrkTcO8M-179" source="_BD6W95FqAiIMrkTcO8M-154" target="_BD6W95FqAiIMrkTcO8M-160" edge="1">
          <mxGeometry relative="1" as="geometry">
            <mxPoint x="300" y="95" as="sourcePoint" />
            <mxPoint x="410" y="70" as="targetPoint" />
          </mxGeometry>
        </mxCell>
        <mxCell id="_BD6W95FqAiIMrkTcO8M-174" value="&lt;span style=&quot;color: rgba(0, 0, 0, 0); font-family: monospace; font-size: 0px; text-align: start; background-color: rgb(236, 236, 236);&quot;&gt;%3CmxGraphModel%3E%3Croot%3E%3CmxCell%20id%3D%220%22%2F%3E%3CmxCell%20id%3D%221%22%20parent%3D%220%22%2F%3E%3CmxCell%20id%3D%222%22%20value%3D%22%22%20style%3D%22endArrow%3Dnone%3Bhtml%3D1%3Brounded%3D0%3BentryX%3D0%3BentryY%3D1%3BentryDx%3D0%3BentryDy%3D0%3BexitX%3D0.5%3BexitY%3D0%3BexitDx%3D0%3BexitDy%3D0%3B%22%20edge%3D%221%22%20parent%3D%221%22%3E%3CmxGeometry%20relative%3D%221%22%20as%3D%22geometry%22%3E%3CmxPoint%20x%3D%22560%22%20y%3D%22660%22%20as%3D%22sourcePoint%22%2F%3E%3CmxPoint%20x%3D%22670%22%20y%3D%22635%22%20as%3D%22targetPoint%22%2F%3E%3C%2FmxGeometry%3E%3C%2FmxCell%3E%3C%2Froot%3E%3C%2FmxGraphModel%3E&lt;/span&gt;" style="edgeLabel;html=1;align=center;verticalAlign=middle;resizable=0;points=[];" parent="_BD6W95FqAiIMrkTcO8M-173" vertex="1" connectable="0">
          <mxGeometry x="0.3608" y="-4" relative="1" as="geometry">
            <mxPoint as="offset" />
          </mxGeometry>
        </mxCell>
        <mxCell id="_BD6W95FqAiIMrkTcO8M-175" value="" style="endArrow=none;html=1;rounded=0;entryX=0;entryY=0.5;entryDx=0;entryDy=0;exitX=1;exitY=0;exitDx=0;exitDy=0;" parent="_BD6W95FqAiIMrkTcO8M-179" target="_BD6W95FqAiIMrkTcO8M-159" edge="1">
          <mxGeometry relative="1" as="geometry">
            <mxPoint x="310" y="135" as="sourcePoint" />
            <mxPoint x="410" y="100" as="targetPoint" />
          </mxGeometry>
        </mxCell>
        <mxCell id="_BD6W95FqAiIMrkTcO8M-176" value="&lt;span style=&quot;color: rgba(0, 0, 0, 0); font-family: monospace; font-size: 0px; text-align: start; background-color: rgb(236, 236, 236);&quot;&gt;%3CmxGraphModel%3E%3Croot%3E%3CmxCell%20id%3D%220%22%2F%3E%3CmxCell%20id%3D%221%22%20parent%3D%220%22%2F%3E%3CmxCell%20id%3D%222%22%20value%3D%22%22%20style%3D%22endArrow%3Dnone%3Bhtml%3D1%3Brounded%3D0%3BentryX%3D0%3BentryY%3D1%3BentryDx%3D0%3BentryDy%3D0%3BexitX%3D0.5%3BexitY%3D0%3BexitDx%3D0%3BexitDy%3D0%3B%22%20edge%3D%221%22%20parent%3D%221%22%3E%3CmxGeometry%20relative%3D%221%22%20as%3D%22geometry%22%3E%3CmxPoint%20x%3D%22560%22%20y%3D%22660%22%20as%3D%22sourcePoint%22%2F%3E%3CmxPoint%20x%3D%22670%22%20y%3D%22635%22%20as%3D%22targetPoint%22%2F%3E%3C%2FmxGeometry%3E%3C%2FmxCell%3E%3C%2Froot%3E%3C%2FmxGraphModel%3E&lt;/span&gt;" style="edgeLabel;html=1;align=center;verticalAlign=middle;resizable=0;points=[];" parent="_BD6W95FqAiIMrkTcO8M-175" vertex="1" connectable="0">
          <mxGeometry x="0.3608" y="-4" relative="1" as="geometry">
            <mxPoint as="offset" />
          </mxGeometry>
        </mxCell>
        <mxCell id="_BD6W95FqAiIMrkTcO8M-177" value="" style="endArrow=none;html=1;rounded=0;entryX=0;entryY=0.5;entryDx=0;entryDy=0;exitX=1;exitY=0.5;exitDx=0;exitDy=0;" parent="_BD6W95FqAiIMrkTcO8M-179" source="_BD6W95FqAiIMrkTcO8M-171" edge="1">
          <mxGeometry relative="1" as="geometry">
            <mxPoint x="110" y="130" as="sourcePoint" />
            <mxPoint x="210" y="95" as="targetPoint" />
          </mxGeometry>
        </mxCell>
        <mxCell id="_BD6W95FqAiIMrkTcO8M-178" value="&lt;span style=&quot;color: rgba(0, 0, 0, 0); font-family: monospace; font-size: 0px; text-align: start; background-color: rgb(236, 236, 236);&quot;&gt;%3CmxGraphModel%3E%3Croot%3E%3CmxCell%20id%3D%220%22%2F%3E%3CmxCell%20id%3D%221%22%20parent%3D%220%22%2F%3E%3CmxCell%20id%3D%222%22%20value%3D%22%22%20style%3D%22endArrow%3Dnone%3Bhtml%3D1%3Brounded%3D0%3BentryX%3D0%3BentryY%3D1%3BentryDx%3D0%3BentryDy%3D0%3BexitX%3D0.5%3BexitY%3D0%3BexitDx%3D0%3BexitDy%3D0%3B%22%20edge%3D%221%22%20parent%3D%221%22%3E%3CmxGeometry%20relative%3D%221%22%20as%3D%22geometry%22%3E%3CmxPoint%20x%3D%22560%22%20y%3D%22660%22%20as%3D%22sourcePoint%22%2F%3E%3CmxPoint%20x%3D%22670%22%20y%3D%22635%22%20as%3D%22targetPoint%22%2F%3E%3C%2FmxGeometry%3E%3C%2FmxCell%3E%3C%2Froot%3E%3C%2FmxGraphModel%3E&lt;/span&gt;" style="edgeLabel;html=1;align=center;verticalAlign=middle;resizable=0;points=[];" parent="_BD6W95FqAiIMrkTcO8M-177" vertex="1" connectable="0">
          <mxGeometry x="0.3608" y="-4" relative="1" as="geometry">
            <mxPoint as="offset" />
          </mxGeometry>
        </mxCell>
        <mxCell id="_BD6W95FqAiIMrkTcO8M-182" value="Books" style="shape=rhombus;perimeter=rhombusPerimeter;whiteSpace=wrap;html=1;align=center;" parent="1" vertex="1">
          <mxGeometry x="530" y="437" width="120" height="60" as="geometry" />
        </mxCell>
        <mxCell id="_BD6W95FqAiIMrkTcO8M-184" value="" style="edgeStyle=entityRelationEdgeStyle;fontSize=12;html=1;endArrow=ERmandOne;rounded=0;exitX=0;exitY=0.5;exitDx=0;exitDy=0;entryX=1;entryY=0.5;entryDx=0;entryDy=0;" parent="1" source="_BD6W95FqAiIMrkTcO8M-182" target="_BD6W95FqAiIMrkTcO8M-218" edge="1">
          <mxGeometry width="100" height="100" relative="1" as="geometry">
            <mxPoint x="750" y="311" as="sourcePoint" />
            <mxPoint x="480" y="409" as="targetPoint" />
            <Array as="points">
              <mxPoint x="590" y="584" />
              <mxPoint x="670" y="494" />
              <mxPoint x="470" y="544" />
            </Array>
          </mxGeometry>
        </mxCell>
        <mxCell id="_BD6W95FqAiIMrkTcO8M-1" value="USERS" style="whiteSpace=wrap;html=1;align=center;" parent="1" vertex="1">
          <mxGeometry x="190" y="545" width="100" height="40" as="geometry" />
        </mxCell>
        <mxCell id="_BD6W95FqAiIMrkTcO8M-2" value="id" style="ellipse;whiteSpace=wrap;html=1;align=center;fontStyle=4;" parent="1" vertex="1">
          <mxGeometry x="80" y="430" width="100" height="40" as="geometry" />
        </mxCell>
        <mxCell id="_BD6W95FqAiIMrkTcO8M-4" value="name" style="ellipse;whiteSpace=wrap;html=1;align=center;" parent="1" vertex="1">
          <mxGeometry x="40" y="497" width="100" height="40" as="geometry" />
        </mxCell>
        <mxCell id="_BD6W95FqAiIMrkTcO8M-6" value="email&lt;span style=&quot;color: rgba(0, 0, 0, 0); font-family: monospace; font-size: 0px; text-align: start; text-wrap-mode: nowrap;&quot;&gt;%3CmxGraphModel%3E%3Croot%3E%3CmxCell%20id%3D%220%22%2F%3E%3CmxCell%20id%3D%221%22%20parent%3D%220%22%2F%3E%3CmxCell%20id%3D%222%22%20value%3D%22name%22%20style%3D%22ellipse%3BwhiteSpace%3Dwrap%3Bhtml%3D1%3Balign%3Dcenter%3B%22%20vertex%3D%221%22%20parent%3D%221%22%3E%3CmxGeometry%20x%3D%22580%22%20y%3D%22560%22%20width%3D%22100%22%20height%3D%2240%22%20as%3D%22geometry%22%2F%3E%3C%2FmxCell%3E%3C%2Froot%3E%3C%2FmxGraphModel%3E&lt;/span&gt;" style="ellipse;whiteSpace=wrap;html=1;align=center;" parent="1" vertex="1">
          <mxGeometry x="40" y="577" width="100" height="40" as="geometry" />
        </mxCell>
        <mxCell id="_BD6W95FqAiIMrkTcO8M-7" value="email verified at" style="ellipse;whiteSpace=wrap;html=1;align=center;" parent="1" vertex="1">
          <mxGeometry x="90" y="640" width="100" height="40" as="geometry" />
        </mxCell>
        <mxCell id="_BD6W95FqAiIMrkTcO8M-8" value="password" style="ellipse;whiteSpace=wrap;html=1;align=center;" parent="1" vertex="1">
          <mxGeometry x="270" y="640" width="100" height="40" as="geometry" />
        </mxCell>
        <mxCell id="_BD6W95FqAiIMrkTcO8M-9" value="role" style="ellipse;whiteSpace=wrap;html=1;align=center;" parent="1" vertex="1">
          <mxGeometry x="380" y="550" width="100" height="40" as="geometry" />
        </mxCell>
        <mxCell id="_BD6W95FqAiIMrkTcO8M-11" value="created at" style="ellipse;whiteSpace=wrap;html=1;align=center;" parent="1" vertex="1">
          <mxGeometry x="340" y="497" width="100" height="40" as="geometry" />
        </mxCell>
        <mxCell id="_BD6W95FqAiIMrkTcO8M-12" style="edgeStyle=orthogonalEdgeStyle;rounded=0;orthogonalLoop=1;jettySize=auto;html=1;exitX=0.5;exitY=1;exitDx=0;exitDy=0;" parent="1" source="_BD6W95FqAiIMrkTcO8M-11" target="_BD6W95FqAiIMrkTcO8M-11" edge="1">
          <mxGeometry relative="1" as="geometry" />
        </mxCell>
        <mxCell id="_BD6W95FqAiIMrkTcO8M-14" value="" style="endArrow=none;html=1;rounded=0;entryX=0.5;entryY=1;entryDx=0;entryDy=0;exitX=0.5;exitY=0;exitDx=0;exitDy=0;" parent="1" source="_BD6W95FqAiIMrkTcO8M-8" edge="1">
          <mxGeometry relative="1" as="geometry">
            <mxPoint x="280" y="675" as="sourcePoint" />
            <mxPoint x="250" y="585" as="targetPoint" />
          </mxGeometry>
        </mxCell>
        <mxCell id="_BD6W95FqAiIMrkTcO8M-15" value="" style="endArrow=none;html=1;rounded=0;entryX=0.5;entryY=1;entryDx=0;entryDy=0;exitX=0.5;exitY=0;exitDx=0;exitDy=0;" parent="1" source="_BD6W95FqAiIMrkTcO8M-7" edge="1">
          <mxGeometry relative="1" as="geometry">
            <mxPoint x="340" y="640" as="sourcePoint" />
            <mxPoint x="250" y="585" as="targetPoint" />
          </mxGeometry>
        </mxCell>
        <mxCell id="_BD6W95FqAiIMrkTcO8M-17" value="" style="endArrow=none;html=1;rounded=0;entryX=0.5;entryY=1;entryDx=0;entryDy=0;exitX=0.5;exitY=0;exitDx=0;exitDy=0;" parent="1" source="_BD6W95FqAiIMrkTcO8M-6" edge="1">
          <mxGeometry relative="1" as="geometry">
            <mxPoint x="280" y="615" as="sourcePoint" />
            <mxPoint x="190" y="560" as="targetPoint" />
          </mxGeometry>
        </mxCell>
        <mxCell id="_BD6W95FqAiIMrkTcO8M-18" value="" style="endArrow=none;html=1;rounded=0;exitX=0.5;exitY=0;exitDx=0;exitDy=0;entryX=0.25;entryY=0;entryDx=0;entryDy=0;" parent="1" target="_BD6W95FqAiIMrkTcO8M-1" edge="1">
          <mxGeometry relative="1" as="geometry">
            <mxPoint x="140" y="517" as="sourcePoint" />
            <mxPoint x="220" y="540" as="targetPoint" />
          </mxGeometry>
        </mxCell>
        <mxCell id="_BD6W95FqAiIMrkTcO8M-19" value="" style="endArrow=none;html=1;rounded=0;entryX=0;entryY=0.5;entryDx=0;entryDy=0;exitX=0.642;exitY=0.012;exitDx=0;exitDy=0;exitPerimeter=0;" parent="1" source="_BD6W95FqAiIMrkTcO8M-1" target="_BD6W95FqAiIMrkTcO8M-11" edge="1">
          <mxGeometry relative="1" as="geometry">
            <mxPoint x="240" y="545" as="sourcePoint" />
            <mxPoint x="337" y="528" as="targetPoint" />
          </mxGeometry>
        </mxCell>
        <mxCell id="_BD6W95FqAiIMrkTcO8M-20" value="" style="endArrow=none;html=1;rounded=0;exitX=0.4;exitY=0;exitDx=0;exitDy=0;exitPerimeter=0;" parent="1" source="_BD6W95FqAiIMrkTcO8M-1" target="_BD6W95FqAiIMrkTcO8M-2" edge="1">
          <mxGeometry relative="1" as="geometry">
            <mxPoint x="240" y="545" as="sourcePoint" />
            <mxPoint x="337" y="528" as="targetPoint" />
          </mxGeometry>
        </mxCell>
        <mxCell id="_BD6W95FqAiIMrkTcO8M-100" value="BOOKINGS" style="whiteSpace=wrap;html=1;align=center;" parent="1" vertex="1">
          <mxGeometry x="862" y="545" width="100" height="40" as="geometry" />
        </mxCell>
        <mxCell id="_BD6W95FqAiIMrkTcO8M-101" value="id" style="ellipse;whiteSpace=wrap;html=1;align=center;fontStyle=4;" parent="1" vertex="1">
          <mxGeometry x="862" y="450" width="100" height="40" as="geometry" />
        </mxCell>
        <mxCell id="_BD6W95FqAiIMrkTcO8M-104" value="ticket_no" style="ellipse;whiteSpace=wrap;html=1;align=center;" parent="1" vertex="1">
          <mxGeometry x="780" y="640" width="100" height="40" as="geometry" />
        </mxCell>
        <mxCell id="_BD6W95FqAiIMrkTcO8M-105" value="qr_code" style="ellipse;whiteSpace=wrap;html=1;align=center;" parent="1" vertex="1">
          <mxGeometry x="962" y="640" width="100" height="40" as="geometry" />
        </mxCell>
        <mxCell id="_BD6W95FqAiIMrkTcO8M-106" value="status" style="ellipse;whiteSpace=wrap;html=1;align=center;" parent="1" vertex="1">
          <mxGeometry x="1022" y="577" width="100" height="40" as="geometry" />
        </mxCell>
        <mxCell id="_BD6W95FqAiIMrkTcO8M-107" value="quantity" style="ellipse;whiteSpace=wrap;html=1;align=center;" parent="1" vertex="1">
          <mxGeometry x="1012" y="497" width="100" height="40" as="geometry" />
        </mxCell>
        <mxCell id="_BD6W95FqAiIMrkTcO8M-108" style="edgeStyle=orthogonalEdgeStyle;rounded=0;orthogonalLoop=1;jettySize=auto;html=1;exitX=0.5;exitY=1;exitDx=0;exitDy=0;" parent="1" source="_BD6W95FqAiIMrkTcO8M-107" target="_BD6W95FqAiIMrkTcO8M-107" edge="1">
          <mxGeometry relative="1" as="geometry" />
        </mxCell>
        <mxCell id="_BD6W95FqAiIMrkTcO8M-109" value="" style="endArrow=none;html=1;rounded=0;entryX=0.5;entryY=1;entryDx=0;entryDy=0;exitX=0.5;exitY=0;exitDx=0;exitDy=0;" parent="1" source="_BD6W95FqAiIMrkTcO8M-105" edge="1">
          <mxGeometry relative="1" as="geometry">
            <mxPoint x="952" y="675" as="sourcePoint" />
            <mxPoint x="922" y="585" as="targetPoint" />
          </mxGeometry>
        </mxCell>
        <mxCell id="_BD6W95FqAiIMrkTcO8M-110" value="" style="endArrow=none;html=1;rounded=0;entryX=0.397;entryY=0.964;entryDx=0;entryDy=0;exitX=0.5;exitY=0;exitDx=0;exitDy=0;entryPerimeter=0;" parent="1" source="_BD6W95FqAiIMrkTcO8M-104" target="_BD6W95FqAiIMrkTcO8M-100" edge="1">
          <mxGeometry relative="1" as="geometry">
            <mxPoint x="1012" y="640" as="sourcePoint" />
            <mxPoint x="922" y="585" as="targetPoint" />
          </mxGeometry>
        </mxCell>
        <mxCell id="_BD6W95FqAiIMrkTcO8M-111" value="" style="endArrow=none;html=1;rounded=0;exitX=0.5;exitY=0;exitDx=0;exitDy=0;" parent="1" source="_BD6W95FqAiIMrkTcO8M-106" edge="1">
          <mxGeometry relative="1" as="geometry">
            <mxPoint x="1052" y="617" as="sourcePoint" />
            <mxPoint x="962" y="560" as="targetPoint" />
          </mxGeometry>
        </mxCell>
        <mxCell id="_BD6W95FqAiIMrkTcO8M-113" value="" style="endArrow=none;html=1;rounded=0;entryX=0.5;entryY=0;entryDx=0;entryDy=0;exitX=0.5;exitY=0;exitDx=0;exitDy=0;" parent="1" target="_BD6W95FqAiIMrkTcO8M-100" edge="1">
          <mxGeometry relative="1" as="geometry">
            <mxPoint x="812" y="517" as="sourcePoint" />
            <mxPoint x="912" y="500" as="targetPoint" />
          </mxGeometry>
        </mxCell>
        <mxCell id="_BD6W95FqAiIMrkTcO8M-114" value="" style="endArrow=none;html=1;rounded=0;entryX=0;entryY=0.5;entryDx=0;entryDy=0;exitX=1;exitY=0;exitDx=0;exitDy=0;" parent="1" source="_BD6W95FqAiIMrkTcO8M-100" target="_BD6W95FqAiIMrkTcO8M-107" edge="1">
          <mxGeometry relative="1" as="geometry">
            <mxPoint x="912" y="545" as="sourcePoint" />
            <mxPoint x="1009" y="528" as="targetPoint" />
          </mxGeometry>
        </mxCell>
        <mxCell id="_BD6W95FqAiIMrkTcO8M-115" value="" style="endArrow=none;html=1;rounded=0;" parent="1" target="_BD6W95FqAiIMrkTcO8M-101" edge="1">
          <mxGeometry relative="1" as="geometry">
            <mxPoint x="912" y="545" as="sourcePoint" />
            <mxPoint x="1009" y="528" as="targetPoint" />
          </mxGeometry>
        </mxCell>
        <mxCell id="_BD6W95FqAiIMrkTcO8M-116" value="&lt;span style=&quot;border-bottom: 1px dotted&quot;&gt;user_id&lt;/span&gt;" style="ellipse;whiteSpace=wrap;html=1;align=center;" parent="1" vertex="1">
          <mxGeometry x="712" y="497" width="100" height="40" as="geometry" />
        </mxCell>
        <mxCell id="_BD6W95FqAiIMrkTcO8M-117" value="&lt;span style=&quot;border-bottom: 1px dotted&quot;&gt;event_id&lt;/span&gt;" style="ellipse;whiteSpace=wrap;html=1;align=center;" parent="1" vertex="1">
          <mxGeometry x="970" y="700" width="100" height="40" as="geometry" />
        </mxCell>
        <mxCell id="_BD6W95FqAiIMrkTcO8M-118" value="total_amount" style="ellipse;whiteSpace=wrap;html=1;align=center;" parent="1" vertex="1">
          <mxGeometry x="1122" y="537" width="100" height="40" as="geometry" />
        </mxCell>
        <mxCell id="_BD6W95FqAiIMrkTcO8M-119" value="booking_date" style="ellipse;whiteSpace=wrap;html=1;align=center;" parent="1" vertex="1">
          <mxGeometry x="1130" y="640" width="100" height="40" as="geometry" />
        </mxCell>
        <mxCell id="_BD6W95FqAiIMrkTcO8M-120" value="booking_date" style="ellipse;whiteSpace=wrap;html=1;align=center;" parent="1" vertex="1">
          <mxGeometry x="862" y="720" width="100" height="40" as="geometry" />
        </mxCell>
        <mxCell id="_BD6W95FqAiIMrkTcO8M-121" value="created_at" style="ellipse;whiteSpace=wrap;html=1;align=center;" parent="1" vertex="1">
          <mxGeometry x="680" y="690" width="100" height="40" as="geometry" />
        </mxCell>
        <mxCell id="_BD6W95FqAiIMrkTcO8M-122" value="updated_at" style="ellipse;whiteSpace=wrap;html=1;align=center;" parent="1" vertex="1">
          <mxGeometry x="712" y="430" width="100" height="40" as="geometry" />
        </mxCell>
        <mxCell id="_BD6W95FqAiIMrkTcO8M-123" value="" style="endArrow=none;html=1;rounded=0;exitX=0.643;exitY=0.979;exitDx=0;exitDy=0;exitPerimeter=0;" parent="1" source="_BD6W95FqAiIMrkTcO8M-122" edge="1">
          <mxGeometry relative="1" as="geometry">
            <mxPoint x="793.6299999999999" y="470" as="sourcePoint" />
            <mxPoint x="920" y="550" as="targetPoint" />
          </mxGeometry>
        </mxCell>
        <mxCell id="_BD6W95FqAiIMrkTcO8M-124" value="" style="endArrow=none;html=1;rounded=0;exitX=0.5;exitY=0;exitDx=0;exitDy=0;entryX=0;entryY=0.5;entryDx=0;entryDy=0;" parent="1" target="_BD6W95FqAiIMrkTcO8M-118" edge="1">
          <mxGeometry relative="1" as="geometry">
            <mxPoint x="962" y="554" as="sourcePoint" />
            <mxPoint x="1120" y="550" as="targetPoint" />
          </mxGeometry>
        </mxCell>
        <mxCell id="_BD6W95FqAiIMrkTcO8M-125" value="" style="endArrow=none;html=1;rounded=0;entryX=0;entryY=1;entryDx=0;entryDy=0;exitX=0.5;exitY=0;exitDx=0;exitDy=0;" parent="1" source="_BD6W95FqAiIMrkTcO8M-121" target="_BD6W95FqAiIMrkTcO8M-100" edge="1">
          <mxGeometry relative="1" as="geometry">
            <mxPoint x="700" y="657" as="sourcePoint" />
            <mxPoint x="800" y="640" as="targetPoint" />
          </mxGeometry>
        </mxCell>
        <mxCell id="_BD6W95FqAiIMrkTcO8M-126" value="" style="endArrow=none;html=1;rounded=0;entryX=0.5;entryY=1;entryDx=0;entryDy=0;exitX=0.5;exitY=0;exitDx=0;exitDy=0;" parent="1" source="_BD6W95FqAiIMrkTcO8M-120" edge="1">
          <mxGeometry relative="1" as="geometry">
            <mxPoint x="817" y="602" as="sourcePoint" />
            <mxPoint x="917" y="585" as="targetPoint" />
          </mxGeometry>
        </mxCell>
        <mxCell id="_BD6W95FqAiIMrkTcO8M-127" value="" style="endArrow=none;html=1;rounded=0;entryX=0;entryY=0.5;entryDx=0;entryDy=0;exitX=0.5;exitY=0;exitDx=0;exitDy=0;" parent="1" target="_BD6W95FqAiIMrkTcO8M-119" edge="1">
          <mxGeometry relative="1" as="geometry">
            <mxPoint x="962" y="585" as="sourcePoint" />
            <mxPoint x="1062" y="568" as="targetPoint" />
          </mxGeometry>
        </mxCell>
        <mxCell id="_BD6W95FqAiIMrkTcO8M-186" value="" style="endArrow=none;html=1;rounded=0;entryX=0.5;entryY=1;entryDx=0;entryDy=0;exitX=0;exitY=0.5;exitDx=0;exitDy=0;" parent="1" source="_BD6W95FqAiIMrkTcO8M-117" target="_BD6W95FqAiIMrkTcO8M-100" edge="1">
          <mxGeometry relative="1" as="geometry">
            <mxPoint x="970" y="712" as="sourcePoint" />
            <mxPoint x="1070" y="700" as="targetPoint" />
          </mxGeometry>
        </mxCell>
        <mxCell id="_BD6W95FqAiIMrkTcO8M-188" value="" style="edgeStyle=orthogonalEdgeStyle;fontSize=12;html=1;endArrow=ERzeroToMany;endFill=1;rounded=0;entryX=0;entryY=0.5;entryDx=0;entryDy=0;exitX=0.5;exitY=1;exitDx=0;exitDy=0;curved=1;" parent="1" source="_BD6W95FqAiIMrkTcO8M-182" target="_BD6W95FqAiIMrkTcO8M-100" edge="1">
          <mxGeometry width="100" height="100" relative="1" as="geometry">
            <mxPoint x="560" y="690" as="sourcePoint" />
            <mxPoint x="660" y="590" as="targetPoint" />
          </mxGeometry>
        </mxCell>
        <mxCell id="_BD6W95FqAiIMrkTcO8M-190" value="" style="endArrow=none;html=1;rounded=0;entryX=0;entryY=0.5;entryDx=0;entryDy=0;exitX=1;exitY=0.5;exitDx=0;exitDy=0;" parent="1" source="_BD6W95FqAiIMrkTcO8M-1" target="_BD6W95FqAiIMrkTcO8M-9" edge="1">
          <mxGeometry relative="1" as="geometry">
            <mxPoint x="290" y="549" as="sourcePoint" />
            <mxPoint x="390" y="537" as="targetPoint" />
          </mxGeometry>
        </mxCell>
        <mxCell id="_BD6W95FqAiIMrkTcO8M-191" value="Creates" style="shape=rhombus;perimeter=rhombusPerimeter;whiteSpace=wrap;html=1;align=center;" parent="1" vertex="1">
          <mxGeometry x="310" y="210" width="120" height="60" as="geometry" />
        </mxCell>
        <mxCell id="_BD6W95FqAiIMrkTcO8M-193" value="" style="edgeStyle=orthogonalEdgeStyle;fontSize=12;html=1;endArrow=ERmandOne;rounded=0;curved=1;entryX=0.5;entryY=0;entryDx=0;entryDy=0;exitX=0;exitY=0.5;exitDx=0;exitDy=0;" parent="1" source="_BD6W95FqAiIMrkTcO8M-191" target="_BD6W95FqAiIMrkTcO8M-216" edge="1">
          <mxGeometry width="100" height="100" relative="1" as="geometry">
            <mxPoint x="290" y="240" as="sourcePoint" />
            <mxPoint x="550" y="360" as="targetPoint" />
            <Array as="points">
              <mxPoint x="230" y="240" />
              <mxPoint x="230" y="310" />
              <mxPoint x="240" y="310" />
            </Array>
          </mxGeometry>
        </mxCell>
        <mxCell id="_BD6W95FqAiIMrkTcO8M-195" value="" style="edgeStyle=orthogonalEdgeStyle;fontSize=12;html=1;endArrow=ERzeroToMany;endFill=1;rounded=0;curved=1;entryX=0;entryY=0.5;entryDx=0;entryDy=0;" parent="1" target="_BD6W95FqAiIMrkTcO8M-41" edge="1">
          <mxGeometry width="100" height="100" relative="1" as="geometry">
            <mxPoint x="430" y="240" as="sourcePoint" />
            <mxPoint x="530" y="140" as="targetPoint" />
          </mxGeometry>
        </mxCell>
        <mxCell id="_BD6W95FqAiIMrkTcO8M-41" value="EVENTS" style="whiteSpace=wrap;html=1;align=center;" parent="1" vertex="1">
          <mxGeometry x="862" y="145" width="100" height="40" as="geometry" />
        </mxCell>
        <mxCell id="_BD6W95FqAiIMrkTcO8M-42" value="id" style="ellipse;whiteSpace=wrap;html=1;align=center;fontStyle=4;" parent="1" vertex="1">
          <mxGeometry x="862" y="50" width="100" height="40" as="geometry" />
        </mxCell>
        <mxCell id="_BD6W95FqAiIMrkTcO8M-43" value="Ttitle" style="ellipse;whiteSpace=wrap;html=1;align=center;" parent="1" vertex="1">
          <mxGeometry x="712" y="97" width="100" height="40" as="geometry" />
        </mxCell>
        <mxCell id="_BD6W95FqAiIMrkTcO8M-44" value="description" style="ellipse;whiteSpace=wrap;html=1;align=center;" parent="1" vertex="1">
          <mxGeometry x="612" y="230" width="100" height="40" as="geometry" />
        </mxCell>
        <mxCell id="_BD6W95FqAiIMrkTcO8M-45" value="date" style="ellipse;whiteSpace=wrap;html=1;align=center;" parent="1" vertex="1">
          <mxGeometry x="792" y="240" width="100" height="40" as="geometry" />
        </mxCell>
        <mxCell id="_BD6W95FqAiIMrkTcO8M-46" value="time" style="ellipse;whiteSpace=wrap;html=1;align=center;" parent="1" vertex="1">
          <mxGeometry x="962" y="240" width="100" height="40" as="geometry" />
        </mxCell>
        <mxCell id="_BD6W95FqAiIMrkTcO8M-47" value="venue" style="ellipse;whiteSpace=wrap;html=1;align=center;" parent="1" vertex="1">
          <mxGeometry x="970" y="40" width="100" height="40" as="geometry" />
        </mxCell>
        <mxCell id="_BD6W95FqAiIMrkTcO8M-48" value="capacity" style="ellipse;whiteSpace=wrap;html=1;align=center;" parent="1" vertex="1">
          <mxGeometry x="1012" y="97" width="100" height="40" as="geometry" />
        </mxCell>
        <mxCell id="_BD6W95FqAiIMrkTcO8M-49" style="edgeStyle=orthogonalEdgeStyle;rounded=0;orthogonalLoop=1;jettySize=auto;html=1;exitX=0.5;exitY=1;exitDx=0;exitDy=0;" parent="1" source="_BD6W95FqAiIMrkTcO8M-48" target="_BD6W95FqAiIMrkTcO8M-48" edge="1">
          <mxGeometry relative="1" as="geometry" />
        </mxCell>
        <mxCell id="_BD6W95FqAiIMrkTcO8M-50" value="" style="endArrow=none;html=1;rounded=0;entryX=0.602;entryY=1.002;entryDx=0;entryDy=0;exitX=0.5;exitY=0;exitDx=0;exitDy=0;entryPerimeter=0;" parent="1" source="_BD6W95FqAiIMrkTcO8M-46" target="_BD6W95FqAiIMrkTcO8M-41" edge="1">
          <mxGeometry relative="1" as="geometry">
            <mxPoint x="952" y="275" as="sourcePoint" />
            <mxPoint x="922" y="185" as="targetPoint" />
          </mxGeometry>
        </mxCell>
        <mxCell id="_BD6W95FqAiIMrkTcO8M-51" value="" style="endArrow=none;html=1;rounded=0;entryX=0.396;entryY=0.993;entryDx=0;entryDy=0;exitX=0.5;exitY=0;exitDx=0;exitDy=0;entryPerimeter=0;" parent="1" source="_BD6W95FqAiIMrkTcO8M-45" target="_BD6W95FqAiIMrkTcO8M-41" edge="1">
          <mxGeometry relative="1" as="geometry">
            <mxPoint x="1012" y="240" as="sourcePoint" />
            <mxPoint x="922" y="185" as="targetPoint" />
          </mxGeometry>
        </mxCell>
        <mxCell id="_BD6W95FqAiIMrkTcO8M-52" value="" style="endArrow=none;html=1;rounded=0;exitX=0.5;exitY=1;exitDx=0;exitDy=0;entryX=0.5;entryY=0;entryDx=0;entryDy=0;" parent="1" source="_BD6W95FqAiIMrkTcO8M-47" target="_BD6W95FqAiIMrkTcO8M-41" edge="1">
          <mxGeometry relative="1" as="geometry">
            <mxPoint x="1052" y="217" as="sourcePoint" />
            <mxPoint x="962" y="160" as="targetPoint" />
          </mxGeometry>
        </mxCell>
        <mxCell id="_BD6W95FqAiIMrkTcO8M-53" value="" style="endArrow=none;html=1;rounded=0;entryX=0;entryY=0.75;entryDx=0;entryDy=0;exitX=0.5;exitY=0;exitDx=0;exitDy=0;" parent="1" source="_BD6W95FqAiIMrkTcO8M-44" target="_BD6W95FqAiIMrkTcO8M-41" edge="1">
          <mxGeometry relative="1" as="geometry">
            <mxPoint x="952" y="215" as="sourcePoint" />
            <mxPoint x="862" y="160" as="targetPoint" />
          </mxGeometry>
        </mxCell>
        <mxCell id="_BD6W95FqAiIMrkTcO8M-54" value="" style="endArrow=none;html=1;rounded=0;entryX=0.5;entryY=0;entryDx=0;entryDy=0;exitX=0.5;exitY=0;exitDx=0;exitDy=0;" parent="1" target="_BD6W95FqAiIMrkTcO8M-41" edge="1">
          <mxGeometry relative="1" as="geometry">
            <mxPoint x="812" y="117" as="sourcePoint" />
            <mxPoint x="912" y="100" as="targetPoint" />
          </mxGeometry>
        </mxCell>
        <mxCell id="_BD6W95FqAiIMrkTcO8M-55" value="" style="endArrow=none;html=1;rounded=0;entryX=0;entryY=0.5;entryDx=0;entryDy=0;" parent="1" target="_BD6W95FqAiIMrkTcO8M-48" edge="1">
          <mxGeometry relative="1" as="geometry">
            <mxPoint x="912" y="145" as="sourcePoint" />
            <mxPoint x="1009" y="128" as="targetPoint" />
          </mxGeometry>
        </mxCell>
        <mxCell id="_BD6W95FqAiIMrkTcO8M-56" value="" style="endArrow=none;html=1;rounded=0;" parent="1" target="_BD6W95FqAiIMrkTcO8M-42" edge="1">
          <mxGeometry relative="1" as="geometry">
            <mxPoint x="912" y="145" as="sourcePoint" />
            <mxPoint x="1009" y="128" as="targetPoint" />
          </mxGeometry>
        </mxCell>
        <mxCell id="_BD6W95FqAiIMrkTcO8M-58" value="Price" style="ellipse;whiteSpace=wrap;html=1;align=center;" parent="1" vertex="1">
          <mxGeometry x="827" y="321" width="100" height="40" as="geometry" />
        </mxCell>
        <mxCell id="_BD6W95FqAiIMrkTcO8M-59" value="status" style="ellipse;whiteSpace=wrap;html=1;align=center;" parent="1" vertex="1">
          <mxGeometry x="1112" y="280" width="100" height="40" as="geometry" />
        </mxCell>
        <mxCell id="_BD6W95FqAiIMrkTcO8M-61" value="&lt;span style=&quot;border-bottom: 1px dotted&quot;&gt;user_id&lt;/span&gt;" style="ellipse;whiteSpace=wrap;html=1;align=center;" parent="1" vertex="1">
          <mxGeometry x="640" y="281" width="100" height="40" as="geometry" />
        </mxCell>
        <mxCell id="_BD6W95FqAiIMrkTcO8M-63" value="updated at" style="ellipse;whiteSpace=wrap;html=1;align=center;" parent="1" vertex="1">
          <mxGeometry x="1160" y="121" width="100" height="40" as="geometry" />
        </mxCell>
        <mxCell id="_BD6W95FqAiIMrkTcO8M-64" value="created at" style="ellipse;whiteSpace=wrap;html=1;align=center;" parent="1" vertex="1">
          <mxGeometry x="550" y="121" width="100" height="40" as="geometry" />
        </mxCell>
        <mxCell id="_BD6W95FqAiIMrkTcO8M-65" value="" style="endArrow=none;html=1;rounded=0;entryX=0;entryY=0.25;entryDx=0;entryDy=0;" parent="1" target="_BD6W95FqAiIMrkTcO8M-41" edge="1">
          <mxGeometry relative="1" as="geometry">
            <mxPoint x="650" y="141" as="sourcePoint" />
            <mxPoint x="750" y="121" as="targetPoint" />
          </mxGeometry>
        </mxCell>
        <mxCell id="_BD6W95FqAiIMrkTcO8M-66" value="" style="endArrow=none;html=1;rounded=0;exitX=0.5;exitY=0;exitDx=0;exitDy=0;" parent="1" target="_BD6W95FqAiIMrkTcO8M-63" edge="1">
          <mxGeometry relative="1" as="geometry">
            <mxPoint x="962" y="154" as="sourcePoint" />
            <mxPoint x="1062" y="137" as="targetPoint" />
          </mxGeometry>
        </mxCell>
        <mxCell id="_BD6W95FqAiIMrkTcO8M-67" value="" style="endArrow=none;html=1;rounded=0;entryX=0;entryY=1;entryDx=0;entryDy=0;exitX=0.5;exitY=0;exitDx=0;exitDy=0;" parent="1" source="_BD6W95FqAiIMrkTcO8M-61" target="_BD6W95FqAiIMrkTcO8M-41" edge="1">
          <mxGeometry relative="1" as="geometry">
            <mxPoint x="680" y="281" as="sourcePoint" />
            <mxPoint x="780" y="264" as="targetPoint" />
          </mxGeometry>
        </mxCell>
        <mxCell id="_BD6W95FqAiIMrkTcO8M-68" value="" style="endArrow=none;html=1;rounded=0;exitX=0.5;exitY=0;exitDx=0;exitDy=0;exitPerimeter=0;" parent="1" source="_BD6W95FqAiIMrkTcO8M-58" edge="1">
          <mxGeometry relative="1" as="geometry">
            <mxPoint x="923" y="320" as="sourcePoint" />
            <mxPoint x="911" y="185" as="targetPoint" />
          </mxGeometry>
        </mxCell>
        <mxCell id="_BD6W95FqAiIMrkTcO8M-69" value="" style="endArrow=none;html=1;rounded=0;entryX=0.5;entryY=0;entryDx=0;entryDy=0;exitX=1;exitY=1;exitDx=0;exitDy=0;" parent="1" source="_BD6W95FqAiIMrkTcO8M-41" target="_BD6W95FqAiIMrkTcO8M-59" edge="1">
          <mxGeometry relative="1" as="geometry">
            <mxPoint x="960" y="183" as="sourcePoint" />
            <mxPoint x="1060" y="166" as="targetPoint" />
          </mxGeometry>
        </mxCell>
        <mxCell id="_BD6W95FqAiIMrkTcO8M-196" value="has" style="shape=rhombus;perimeter=rhombusPerimeter;whiteSpace=wrap;html=1;align=center;" parent="1" vertex="1">
          <mxGeometry x="957" y="370" width="120" height="60" as="geometry" />
        </mxCell>
        <mxCell id="_BD6W95FqAiIMrkTcO8M-197" value="" style="edgeStyle=orthogonalEdgeStyle;fontSize=12;html=1;endArrow=ERzeroToMany;endFill=1;rounded=0;curved=1;entryX=0.75;entryY=0;entryDx=0;entryDy=0;exitX=0.5;exitY=1;exitDx=0;exitDy=0;" parent="1" source="_BD6W95FqAiIMrkTcO8M-196" target="_BD6W95FqAiIMrkTcO8M-100" edge="1">
          <mxGeometry width="100" height="100" relative="1" as="geometry">
            <mxPoint x="980" y="400" as="sourcePoint" />
            <mxPoint x="990" y="464.5" as="targetPoint" />
            <Array as="points">
              <mxPoint x="1052" y="460" />
              <mxPoint x="970" y="460" />
              <mxPoint x="970" y="520" />
              <mxPoint x="937" y="520" />
            </Array>
          </mxGeometry>
        </mxCell>
        <mxCell id="_BD6W95FqAiIMrkTcO8M-198" value="" style="edgeStyle=orthogonalEdgeStyle;fontSize=12;html=1;endArrow=ERmandOne;rounded=0;curved=1;entryX=0.587;entryY=0.992;entryDx=0;entryDy=0;entryPerimeter=0;exitX=0.5;exitY=0;exitDx=0;exitDy=0;" parent="1" edge="1">
          <mxGeometry width="100" height="100" relative="1" as="geometry">
            <mxPoint x="1018" y="370" as="sourcePoint" />
            <mxPoint x="916.7" y="184.68000000000006" as="targetPoint" />
            <Array as="points">
              <mxPoint x="1018" y="290" />
              <mxPoint x="917" y="290" />
            </Array>
          </mxGeometry>
        </mxCell>
        <mxCell id="_BD6W95FqAiIMrkTcO8M-199" value="includes" style="shape=rhombus;perimeter=rhombusPerimeter;whiteSpace=wrap;html=1;align=center;" parent="1" vertex="1">
          <mxGeometry x="1300" y="240" width="120" height="60" as="geometry" />
        </mxCell>
        <mxCell id="_BD6W95FqAiIMrkTcO8M-200" value="" style="edgeStyle=orthogonalEdgeStyle;fontSize=12;html=1;endArrow=ERmandOne;rounded=0;curved=1;entryX=1;entryY=0.5;entryDx=0;entryDy=0;exitX=0;exitY=0.5;exitDx=0;exitDy=0;" parent="1" source="_BD6W95FqAiIMrkTcO8M-199" target="_BD6W95FqAiIMrkTcO8M-41" edge="1">
          <mxGeometry width="100" height="100" relative="1" as="geometry">
            <mxPoint x="1101.3" y="352.6599999999999" as="sourcePoint" />
            <mxPoint x="1000" y="167.34" as="targetPoint" />
            <Array as="points">
              <mxPoint x="1300" y="240" />
              <mxPoint x="1150" y="240" />
              <mxPoint x="1150" y="200" />
              <mxPoint x="1000" y="200" />
              <mxPoint x="1000" y="165" />
            </Array>
          </mxGeometry>
        </mxCell>
        <mxCell id="_BD6W95FqAiIMrkTcO8M-130" value="SEATS" style="whiteSpace=wrap;html=1;align=center;" parent="1" vertex="1">
          <mxGeometry x="1545" y="537" width="100" height="40" as="geometry" />
        </mxCell>
        <mxCell id="_BD6W95FqAiIMrkTcO8M-131" value="id" style="ellipse;whiteSpace=wrap;html=1;align=center;fontStyle=4;" parent="1" vertex="1">
          <mxGeometry x="1440" y="430" width="100" height="40" as="geometry" />
        </mxCell>
        <mxCell id="_BD6W95FqAiIMrkTcO8M-132" value="seat_no" style="ellipse;whiteSpace=wrap;html=1;align=center;" parent="1" vertex="1">
          <mxGeometry x="1395" y="489" width="100" height="40" as="geometry" />
        </mxCell>
        <mxCell id="_BD6W95FqAiIMrkTcO8M-134" value="row" style="ellipse;whiteSpace=wrap;html=1;align=center;" parent="1" vertex="1">
          <mxGeometry x="1475" y="632" width="100" height="40" as="geometry" />
        </mxCell>
        <mxCell id="_BD6W95FqAiIMrkTcO8M-135" value="section" style="ellipse;whiteSpace=wrap;html=1;align=center;" parent="1" vertex="1">
          <mxGeometry x="1645" y="632" width="100" height="40" as="geometry" />
        </mxCell>
        <mxCell id="_BD6W95FqAiIMrkTcO8M-136" value="status" style="ellipse;whiteSpace=wrap;html=1;align=center;" parent="1" vertex="1">
          <mxGeometry x="1705" y="569" width="100" height="40" as="geometry" />
        </mxCell>
        <mxCell id="_BD6W95FqAiIMrkTcO8M-137" value="price" style="ellipse;whiteSpace=wrap;html=1;align=center;" parent="1" vertex="1">
          <mxGeometry x="1695" y="489" width="100" height="40" as="geometry" />
        </mxCell>
        <mxCell id="_BD6W95FqAiIMrkTcO8M-138" style="edgeStyle=orthogonalEdgeStyle;rounded=0;orthogonalLoop=1;jettySize=auto;html=1;exitX=0.5;exitY=1;exitDx=0;exitDy=0;" parent="1" source="_BD6W95FqAiIMrkTcO8M-137" target="_BD6W95FqAiIMrkTcO8M-137" edge="1">
          <mxGeometry relative="1" as="geometry" />
        </mxCell>
        <mxCell id="_BD6W95FqAiIMrkTcO8M-139" value="" style="endArrow=none;html=1;rounded=0;entryX=0.5;entryY=1;entryDx=0;entryDy=0;exitX=0.5;exitY=0;exitDx=0;exitDy=0;" parent="1" source="_BD6W95FqAiIMrkTcO8M-135" edge="1">
          <mxGeometry relative="1" as="geometry">
            <mxPoint x="1635" y="667" as="sourcePoint" />
            <mxPoint x="1605" y="577" as="targetPoint" />
          </mxGeometry>
        </mxCell>
        <mxCell id="_BD6W95FqAiIMrkTcO8M-140" value="" style="endArrow=none;html=1;rounded=0;entryX=0.358;entryY=0.987;entryDx=0;entryDy=0;exitX=0.5;exitY=0;exitDx=0;exitDy=0;entryPerimeter=0;" parent="1" source="_BD6W95FqAiIMrkTcO8M-134" target="_BD6W95FqAiIMrkTcO8M-130" edge="1">
          <mxGeometry relative="1" as="geometry">
            <mxPoint x="1695" y="632" as="sourcePoint" />
            <mxPoint x="1605" y="577" as="targetPoint" />
          </mxGeometry>
        </mxCell>
        <mxCell id="_BD6W95FqAiIMrkTcO8M-141" value="" style="endArrow=none;html=1;rounded=0;exitX=0.5;exitY=0;exitDx=0;exitDy=0;" parent="1" source="_BD6W95FqAiIMrkTcO8M-136" edge="1">
          <mxGeometry relative="1" as="geometry">
            <mxPoint x="1735" y="609" as="sourcePoint" />
            <mxPoint x="1645" y="552" as="targetPoint" />
          </mxGeometry>
        </mxCell>
        <mxCell id="_BD6W95FqAiIMrkTcO8M-142" value="" style="endArrow=none;html=1;rounded=0;entryX=0;entryY=0.5;entryDx=0;entryDy=0;exitX=0.5;exitY=0;exitDx=0;exitDy=0;" parent="1" target="_BD6W95FqAiIMrkTcO8M-130" edge="1">
          <mxGeometry relative="1" as="geometry">
            <mxPoint x="1445" y="569" as="sourcePoint" />
            <mxPoint x="1545" y="552" as="targetPoint" />
          </mxGeometry>
        </mxCell>
        <mxCell id="_BD6W95FqAiIMrkTcO8M-143" value="" style="endArrow=none;html=1;rounded=0;entryX=0;entryY=0;entryDx=0;entryDy=0;exitX=0.5;exitY=0;exitDx=0;exitDy=0;" parent="1" target="_BD6W95FqAiIMrkTcO8M-130" edge="1">
          <mxGeometry relative="1" as="geometry">
            <mxPoint x="1495" y="509" as="sourcePoint" />
            <mxPoint x="1595" y="492" as="targetPoint" />
          </mxGeometry>
        </mxCell>
        <mxCell id="_BD6W95FqAiIMrkTcO8M-144" value="" style="endArrow=none;html=1;rounded=0;entryX=0;entryY=0.5;entryDx=0;entryDy=0;exitX=1;exitY=0;exitDx=0;exitDy=0;" parent="1" source="_BD6W95FqAiIMrkTcO8M-130" target="_BD6W95FqAiIMrkTcO8M-137" edge="1">
          <mxGeometry relative="1" as="geometry">
            <mxPoint x="1595" y="537" as="sourcePoint" />
            <mxPoint x="1692" y="520" as="targetPoint" />
          </mxGeometry>
        </mxCell>
        <mxCell id="_BD6W95FqAiIMrkTcO8M-145" value="" style="endArrow=none;html=1;rounded=0;exitX=0.126;exitY=-0.062;exitDx=0;exitDy=0;exitPerimeter=0;" parent="1" source="_BD6W95FqAiIMrkTcO8M-130" target="_BD6W95FqAiIMrkTcO8M-131" edge="1">
          <mxGeometry relative="1" as="geometry">
            <mxPoint x="1595" y="537" as="sourcePoint" />
            <mxPoint x="1692" y="520" as="targetPoint" />
          </mxGeometry>
        </mxCell>
        <mxCell id="_BD6W95FqAiIMrkTcO8M-146" value="&lt;span style=&quot;border-bottom: 1px dotted&quot;&gt;event_id&lt;/span&gt;" style="ellipse;whiteSpace=wrap;html=1;align=center;" parent="1" vertex="1">
          <mxGeometry x="1390" y="569" width="100" height="40" as="geometry" />
        </mxCell>
        <mxCell id="_BD6W95FqAiIMrkTcO8M-147" value="created_at" style="ellipse;whiteSpace=wrap;html=1;align=center;" parent="1" vertex="1">
          <mxGeometry x="1825" y="529" width="100" height="40" as="geometry" />
        </mxCell>
        <mxCell id="_BD6W95FqAiIMrkTcO8M-148" value="updated_at" style="ellipse;whiteSpace=wrap;html=1;align=center;" parent="1" vertex="1">
          <mxGeometry x="1290" y="529" width="100" height="40" as="geometry" />
        </mxCell>
        <mxCell id="_BD6W95FqAiIMrkTcO8M-149" value="" style="endArrow=none;html=1;rounded=0;exitX=0.5;exitY=0;exitDx=0;exitDy=0;" parent="1" edge="1">
          <mxGeometry relative="1" as="geometry">
            <mxPoint x="1390" y="546" as="sourcePoint" />
            <mxPoint x="1545" y="552" as="targetPoint" />
          </mxGeometry>
        </mxCell>
        <mxCell id="_BD6W95FqAiIMrkTcO8M-150" value="" style="endArrow=none;html=1;rounded=0;entryX=0.5;entryY=1;entryDx=0;entryDy=0;exitX=1;exitY=0.25;exitDx=0;exitDy=0;" parent="1" source="_BD6W95FqAiIMrkTcO8M-130" edge="1">
          <mxGeometry relative="1" as="geometry">
            <mxPoint x="1725" y="565.5" as="sourcePoint" />
            <mxPoint x="1825" y="548.5" as="targetPoint" />
          </mxGeometry>
        </mxCell>
        <mxCell id="_BD6W95FqAiIMrkTcO8M-203" value="" style="edgeStyle=orthogonalEdgeStyle;fontSize=12;html=1;endArrow=ERzeroToMany;endFill=1;rounded=0;curved=1;entryX=0.75;entryY=0;entryDx=0;entryDy=0;exitX=1;exitY=0.5;exitDx=0;exitDy=0;" parent="1" source="_BD6W95FqAiIMrkTcO8M-199" edge="1">
          <mxGeometry width="100" height="100" relative="1" as="geometry">
            <mxPoint x="1670" y="422" as="sourcePoint" />
            <mxPoint x="1590" y="537" as="targetPoint" />
            <Array as="points">
              <mxPoint x="1420" y="300" />
              <mxPoint x="1460" y="300" />
              <mxPoint x="1460" y="420" />
              <mxPoint x="1623" y="420" />
              <mxPoint x="1623" y="512" />
              <mxPoint x="1590" y="512" />
            </Array>
          </mxGeometry>
        </mxCell>
        <mxCell id="_BD6W95FqAiIMrkTcO8M-204" value="" style="edgeStyle=orthogonalEdgeStyle;fontSize=12;html=1;endArrow=ERmandOne;rounded=0;curved=1;" parent="1" edge="1">
          <mxGeometry width="100" height="100" relative="1" as="geometry">
            <mxPoint x="1348" y="907" as="sourcePoint" />
            <mxPoint x="1598" y="577" as="targetPoint" />
            <Array as="points">
              <mxPoint x="1348" y="842" />
              <mxPoint x="1538" y="842" />
              <mxPoint x="1538" y="767" />
              <mxPoint x="1588" y="767" />
              <mxPoint x="1588" y="597" />
              <mxPoint x="1598" y="597" />
            </Array>
          </mxGeometry>
        </mxCell>
        <mxCell id="_BD6W95FqAiIMrkTcO8M-205" value="assigned_to" style="shape=rhombus;perimeter=rhombusPerimeter;whiteSpace=wrap;html=1;align=center;" parent="1" vertex="1">
          <mxGeometry x="1290" y="900" width="120" height="60" as="geometry" />
        </mxCell>
        <mxCell id="_BD6W95FqAiIMrkTcO8M-206" value="" style="edgeStyle=orthogonalEdgeStyle;fontSize=12;html=1;endArrow=ERzeroToMany;endFill=1;rounded=0;curved=1;exitX=0;exitY=0.5;exitDx=0;exitDy=0;" parent="1" source="_BD6W95FqAiIMrkTcO8M-205" edge="1">
          <mxGeometry width="100" height="100" relative="1" as="geometry">
            <mxPoint x="1280" y="1060" as="sourcePoint" />
            <mxPoint x="970" y="1000" as="targetPoint" />
            <Array as="points">
              <mxPoint x="1290" y="970" />
              <mxPoint x="1161" y="970" />
              <mxPoint x="1161" y="1040" />
              <mxPoint x="1020" y="1040" />
              <mxPoint x="1020" y="1010" />
              <mxPoint x="1030" y="1010" />
              <mxPoint x="1030" y="1000" />
            </Array>
          </mxGeometry>
        </mxCell>
        <mxCell id="_BD6W95FqAiIMrkTcO8M-207" value="contains" style="shape=rhombus;perimeter=rhombusPerimeter;whiteSpace=wrap;html=1;align=center;" parent="1" vertex="1">
          <mxGeometry x="480" y="840" width="120" height="60" as="geometry" />
        </mxCell>
        <mxCell id="_BD6W95FqAiIMrkTcO8M-208" value="" style="edgeStyle=orthogonalEdgeStyle;fontSize=12;html=1;endArrow=ERmandOne;rounded=0;curved=1;exitX=0.5;exitY=0;exitDx=0;exitDy=0;" parent="1" source="_BD6W95FqAiIMrkTcO8M-207" edge="1">
          <mxGeometry width="100" height="100" relative="1" as="geometry">
            <mxPoint x="656" y="914" as="sourcePoint" />
            <mxPoint x="906" y="584" as="targetPoint" />
            <Array as="points">
              <mxPoint x="540" y="790" />
              <mxPoint x="656" y="790" />
              <mxPoint x="656" y="740" />
              <mxPoint x="896" y="740" />
              <mxPoint x="896" y="604" />
              <mxPoint x="906" y="604" />
            </Array>
          </mxGeometry>
        </mxCell>
        <mxCell id="_BD6W95FqAiIMrkTcO8M-209" value="" style="edgeStyle=orthogonalEdgeStyle;fontSize=12;html=1;endArrow=ERzeroToMany;endFill=1;rounded=0;curved=1;entryX=0;entryY=0.5;entryDx=0;entryDy=0;exitX=0.5;exitY=1;exitDx=0;exitDy=0;" parent="1" source="_BD6W95FqAiIMrkTcO8M-207" target="_BD6W95FqAiIMrkTcO8M-154" edge="1">
          <mxGeometry width="100" height="100" relative="1" as="geometry">
            <mxPoint x="512" y="1100" as="sourcePoint" />
            <mxPoint x="612" y="1000" as="targetPoint" />
          </mxGeometry>
        </mxCell>
        <mxCell id="_BD6W95FqAiIMrkTcO8M-213" value="" style="endArrow=none;html=1;rounded=0;exitX=0.4;exitY=0;exitDx=0;exitDy=0;exitPerimeter=0;" parent="1" edge="1">
          <mxGeometry relative="1" as="geometry">
            <mxPoint x="238" y="545" as="sourcePoint" />
            <mxPoint x="238" y="468" as="targetPoint" />
          </mxGeometry>
        </mxCell>
        <mxCell id="_BD6W95FqAiIMrkTcO8M-214" value="" style="endArrow=none;html=1;rounded=0;exitX=0.4;exitY=0;exitDx=0;exitDy=0;exitPerimeter=0;" parent="1" edge="1">
          <mxGeometry relative="1" as="geometry">
            <mxPoint x="247" y="544" as="sourcePoint" />
            <mxPoint x="247" y="467" as="targetPoint" />
          </mxGeometry>
        </mxCell>
        <mxCell id="_BD6W95FqAiIMrkTcO8M-215" value="d" style="ellipse;whiteSpace=wrap;html=1;aspect=fixed;" parent="1" vertex="1">
          <mxGeometry x="227" y="440" width="30" height="30" as="geometry" />
        </mxCell>
        <mxCell id="_BD6W95FqAiIMrkTcO8M-216" value="admin" style="whiteSpace=wrap;html=1;align=center;" parent="1" vertex="1">
          <mxGeometry x="190" y="340" width="100" height="40" as="geometry" />
        </mxCell>
        <mxCell id="_BD6W95FqAiIMrkTcO8M-217" value="" style="endArrow=none;html=1;rounded=0;exitX=0.5;exitY=0;exitDx=0;exitDy=0;entryX=0.5;entryY=1;entryDx=0;entryDy=0;" parent="1" source="_BD6W95FqAiIMrkTcO8M-215" target="_BD6W95FqAiIMrkTcO8M-216" edge="1">
          <mxGeometry relative="1" as="geometry">
            <mxPoint x="280" y="490" as="sourcePoint" />
            <mxPoint x="242" y="390" as="targetPoint" />
            <Array as="points">
              <mxPoint x="240" y="410" />
            </Array>
          </mxGeometry>
        </mxCell>
        <mxCell id="_BD6W95FqAiIMrkTcO8M-218" value="user" style="whiteSpace=wrap;html=1;align=center;" parent="1" vertex="1">
          <mxGeometry x="360" y="400" width="100" height="40" as="geometry" />
        </mxCell>
        <mxCell id="_BD6W95FqAiIMrkTcO8M-221" value="" style="endArrow=none;html=1;rounded=0;entryX=0;entryY=0.5;entryDx=0;entryDy=0;" parent="1" target="_BD6W95FqAiIMrkTcO8M-218" edge="1">
          <mxGeometry relative="1" as="geometry">
            <mxPoint x="257" y="449.05" as="sourcePoint" />
            <mxPoint x="417" y="449.05" as="targetPoint" />
          </mxGeometry>
        </mxCell>
      </root>
    </mxGraphModel>
  </diagram>
</mxfile>
